# xmcd
#
# Track frame offsets:
#	183
#	16130
#	35630
#	53413
#	68563
#	82075
#	95568
#	109120
#	124595
#	142945
#	159553
#	174398
#
# Disc length: 2549 seconds
#
# Revision: 8
# Processed by: cddbd v1.5.2PL0 Copyright (c) Steve Scherf et al.
# Submitted via: EZCDAudioConverter 8.2.2.1
#
DISCID=9109f30c
DTITLE=LEANDRO and LEONARDO - TEMPORAL DE AMOR [CD 207.800.374) GEL CHANTECLER
DYEAR=1992
DGENRE=SERTANEJO
TTITLE0=O QUE EU SINTO É AMOR (BY GILMAR SINISTRO)
TTITLE1=UM ARRASO DE MULHER (BY GILMAR SINISTRO)
TTITLE2=FIM DE SEMANA SEM VOCÊ (BY GILMAR SINISTRO)
TTITLE3=CONTA PRA ELA (BY GILMAR SINISTRO)
TTITLE4=MAIS UMA NOITE SEM VOCÊ (BY GILMAR SINISTRO)
TTITLE5=VOCÊ É DOIDA DEMAIS (BY GILMAR SINISTRO)
TTITLE6=NÃO DURMO SEM ELA (BY GILMAR SINISTRO)
TTITLE7=AMOR VAMPIRO (BY GILMAR SINISTRO)
TTITLE8=TEMPORAL DE AMOR (BY GILMAR SINISTRO)
TTITLE9=ESTA NOITE FOI MARAVILHOSA (WONDERFUL TONIGTH) (BY GILMAR SINISTRO)
TTITLE10=VEM FAZER AMOR COMIGO (BY GILMAR SINISTRO)
TTITLE11=CHEGA (BY GILMAR SINISTRO)
EXTD=
EXTT0=
EXTT1=
EXTT2=
EXTT3=
EXTT4=
EXTT5=
EXTT6=
EXTT7=
EXTT8=
EXTT9=
EXTT10=
EXTT11=
PLAYORDER=
